<mxfile host="app.diagrams.net" modified="2020-10-17T06:17:58.214Z" agent="5.0 (Windows NT 10.0; Win64; x64) AppleWebKit/537.36 (KHTML, like Gecko) Chrome/81.0.4044.138 Safari/537.36" etag="vQbjYpLIYhBl7mW5DBM0" version="13.7.9" type="github">
  <diagram id="0Webs_a5fg5Gpv_39QYl" name="Page-1">
    <mxGraphModel dx="1422" dy="713" grid="1" gridSize="10" guides="1" tooltips="1" connect="1" arrows="1" fold="1" page="1" pageScale="1" pageWidth="827" pageHeight="1169" math="0" shadow="0">
      <root>
        <mxCell id="0" />
        <mxCell id="1" parent="0" />
        <mxCell id="IuMyJZzlJubQnWPH0BC8-7" value="访问" style="edgeStyle=orthogonalEdgeStyle;rounded=0;orthogonalLoop=1;jettySize=auto;html=1;entryX=0.5;entryY=0;entryDx=0;entryDy=0;fontSize=16;" edge="1" parent="1" source="IuMyJZzlJubQnWPH0BC8-1" target="IuMyJZzlJubQnWPH0BC8-2">
          <mxGeometry relative="1" as="geometry" />
        </mxCell>
        <mxCell id="IuMyJZzlJubQnWPH0BC8-1" value="&lt;font style=&quot;font-size: 16px&quot;&gt;应用程序&lt;/font&gt;" style="rounded=1;whiteSpace=wrap;html=1;strokeWidth=1;fillWeight=4;hachureGap=8;hachureAngle=45;sketch=0;comic=1;fontFamily=Comic Sans MS;fillColor=#ffe6cc;strokeColor=#d79b00;fontSize=16;" vertex="1" parent="1">
          <mxGeometry x="150" y="200" width="120" height="40" as="geometry" />
        </mxCell>
        <mxCell id="IuMyJZzlJubQnWPH0BC8-8" value="访问" style="edgeStyle=orthogonalEdgeStyle;rounded=0;orthogonalLoop=1;jettySize=auto;html=1;entryX=0.5;entryY=0;entryDx=0;entryDy=0;fontSize=16;" edge="1" parent="1" source="IuMyJZzlJubQnWPH0BC8-2" target="IuMyJZzlJubQnWPH0BC8-3">
          <mxGeometry relative="1" as="geometry" />
        </mxCell>
        <mxCell id="IuMyJZzlJubQnWPH0BC8-2" value="&lt;font style=&quot;font-size: 16px&quot;&gt;Redis 缓存&lt;/font&gt;" style="rounded=1;whiteSpace=wrap;html=1;strokeWidth=1;fillWeight=4;hachureGap=8;hachureAngle=45;sketch=0;comic=1;fontFamily=Comic Sans MS;fillColor=#d5e8d4;strokeColor=#82b366;fontSize=16;" vertex="1" parent="1">
          <mxGeometry x="150" y="320" width="120" height="40" as="geometry" />
        </mxCell>
        <mxCell id="IuMyJZzlJubQnWPH0BC8-3" value="&lt;font style=&quot;font-size: 16px&quot;&gt;数据块&lt;/font&gt;" style="rounded=1;whiteSpace=wrap;html=1;strokeWidth=1;fillWeight=4;hachureGap=8;hachureAngle=45;sketch=0;comic=1;fontFamily=Comic Sans MS;fillColor=#f5f5f5;strokeColor=#666666;fontSize=16;fontColor=#333333;" vertex="1" parent="1">
          <mxGeometry x="150" y="440" width="120" height="40" as="geometry" />
        </mxCell>
        <mxCell id="IuMyJZzlJubQnWPH0BC8-9" value="访问" style="edgeStyle=orthogonalEdgeStyle;rounded=0;orthogonalLoop=1;jettySize=auto;html=1;fontSize=16;" edge="1" parent="1" source="IuMyJZzlJubQnWPH0BC8-4" target="IuMyJZzlJubQnWPH0BC8-5">
          <mxGeometry relative="1" as="geometry" />
        </mxCell>
        <mxCell id="IuMyJZzlJubQnWPH0BC8-4" value="&lt;font style=&quot;font-size: 16px&quot;&gt;CPU&amp;nbsp;&lt;/font&gt;" style="rounded=1;whiteSpace=wrap;html=1;strokeWidth=1;fillWeight=4;hachureGap=8;hachureAngle=45;sketch=0;comic=1;fontFamily=Comic Sans MS;fillColor=#ffe6cc;strokeColor=#d79b00;fontSize=16;" vertex="1" parent="1">
          <mxGeometry x="510" y="200" width="120" height="40" as="geometry" />
        </mxCell>
        <mxCell id="IuMyJZzlJubQnWPH0BC8-10" value="访问" style="edgeStyle=orthogonalEdgeStyle;rounded=0;orthogonalLoop=1;jettySize=auto;html=1;entryX=0.5;entryY=0;entryDx=0;entryDy=0;fontSize=16;" edge="1" parent="1" source="IuMyJZzlJubQnWPH0BC8-5" target="IuMyJZzlJubQnWPH0BC8-6">
          <mxGeometry relative="1" as="geometry" />
        </mxCell>
        <mxCell id="IuMyJZzlJubQnWPH0BC8-5" value="&lt;font style=&quot;font-size: 16px&quot;&gt;CPU Cache&lt;/font&gt;" style="rounded=1;whiteSpace=wrap;html=1;strokeWidth=1;fillWeight=4;hachureGap=8;hachureAngle=45;sketch=0;comic=1;fontFamily=Comic Sans MS;fillColor=#d5e8d4;strokeColor=#82b366;fontSize=16;" vertex="1" parent="1">
          <mxGeometry x="510" y="320" width="120" height="40" as="geometry" />
        </mxCell>
        <mxCell id="IuMyJZzlJubQnWPH0BC8-6" value="&lt;font style=&quot;font-size: 16px&quot;&gt;内存&lt;/font&gt;" style="rounded=1;whiteSpace=wrap;html=1;strokeWidth=1;fillWeight=4;hachureGap=8;hachureAngle=45;sketch=0;comic=1;fontFamily=Comic Sans MS;fillColor=#f5f5f5;strokeColor=#666666;fontSize=16;fontColor=#333333;" vertex="1" parent="1">
          <mxGeometry x="510" y="440" width="120" height="40" as="geometry" />
        </mxCell>
        <mxCell id="IuMyJZzlJubQnWPH0BC8-12" value="" style="shape=flexArrow;endArrow=classic;startArrow=classic;html=1;fontSize=16;fillColor=#e1d5e7;strokeColor=#9673a6;" edge="1" parent="1">
          <mxGeometry width="50" height="50" relative="1" as="geometry">
            <mxPoint x="300" y="340" as="sourcePoint" />
            <mxPoint x="480" y="340" as="targetPoint" />
          </mxGeometry>
        </mxCell>
        <mxCell id="IuMyJZzlJubQnWPH0BC8-13" value="相似的架构&lt;br style=&quot;font-size: 16px;&quot;&gt;当访问数据时，&lt;br style=&quot;font-size: 16px;&quot;&gt;缓存层没有命中时，才会去访问下层" style="text;html=1;align=center;verticalAlign=middle;resizable=0;points=[];autosize=1;fontSize=16;" vertex="1" parent="1">
          <mxGeometry x="250" y="360" width="270" height="60" as="geometry" />
        </mxCell>
      </root>
    </mxGraphModel>
  </diagram>
</mxfile>
